# xmcd
#
# Track frame offsets: 
#        150
#        17548
#        46130
#
# Disc length: 855 seconds
#
# Revision: 0
# Processed by: cddbd v1.5.2PL0 Copyright (c) Steve Scherf et al.
# Submitted via: ExactAudioCopyFreeDBPlugin 1.0
#
DISCID=16035503
DTITLE=Bent - Stay the Same [Ltd. Ed. CD2]
DYEAR=2003
DGENRE=Electronic
TTITLE0=Stay the Same (Radio Version)
TTITLE1=Since You Went Away
TTITLE2=Winter
EXTD=
EXTT0=
EXTT1=
EXTT2=
PLAYORDER=
